<svg xmlns="http://www.w3.org/2000/svg" xmlns:xlink="http://www.w3.org/1999/xlink" width="1200" zoomAndPan="magnify" viewBox="0 0 900 899.99999" height="1200" preserveAspectRatio="xMidYMid meet" version="1.0"><defs><clipPath id="067a90ed0c"><path d="M 0 91.125 L 900 91.125 L 900 810 L 0 810 Z M 0 91.125 " clip-rule="nonzero"/></clipPath></defs><path fill="#ff0000" d="M 325.574219 163.011719 C 218.605469 163.011719 131.570312 250.046875 131.570312 357.015625 C 131.570312 422.300781 164.015625 480.167969 213.625 515.359375 C 213.898438 515.59375 214.167969 515.867188 214.480469 516.070312 C 214.824219 516.304688 215.167969 516.484375 215.515625 516.667969 C 246.8125 538.308594 284.730469 551.003906 325.574219 551.003906 C 423.230469 551.003906 504.265625 478.441406 517.613281 384.40625 L 517.613281 384.3125 C 518.886719 375.386719 519.558594 366.273438 519.558594 357.019531 C 519.558594 250.046875 432.523438 163.011719 325.574219 163.011719 Z M 500.082031 378.164062 L 412.648438 443.050781 L 363.398438 412.480469 C 364.800781 408.570312 365.820312 404.535156 366.4375 400.371094 C 367.183594 395.40625 363.765625 390.785156 358.800781 390.039062 C 353.835938 389.3125 349.199219 392.734375 348.453125 397.695312 C 347.488281 404.261719 345.140625 410.425781 341.488281 415.992188 C 338.742188 420.191406 339.90625 425.832031 344.105469 428.578125 C 345.652344 429.578125 347.378906 430.066406 349.089844 430.066406 C 350.996094 430.066406 352.871094 429.449219 354.433594 428.320312 L 408.300781 461.765625 C 409.773438 462.675781 411.445312 463.128906 413.101562 463.128906 C 415.011719 463.128906 416.921875 462.527344 418.519531 461.347656 L 494.773438 404.753906 C 473.910156 478.566406 405.953125 532.816406 325.574219 532.816406 C 291.347656 532.816406 259.378906 522.976562 232.335938 505.992188 L 272.34375 447.144531 C 276.089844 449.179688 280.054688 450.871094 284.199219 452.144531 C 285.089844 452.417969 286 452.542969 286.875 452.542969 C 290.765625 452.542969 294.367188 450.035156 295.566406 446.125 C 297.039062 441.324219 294.347656 436.230469 289.546875 434.757812 C 283.199219 432.8125 277.472656 429.578125 272.488281 425.140625 C 268.742188 421.792969 262.996094 422.121094 259.648438 425.867188 C 257.175781 428.628906 256.722656 432.484375 258.160156 435.652344 L 217.441406 495.535156 C 176.269531 463.328125 149.753906 413.207031 149.753906 357.015625 C 149.753906 260.070312 228.625 181.199219 325.574219 181.199219 C 422.5 181.199219 501.371094 260.070312 501.371094 357.015625 C 501.375 364.164062 500.917969 371.238281 500.082031 378.164062 Z M 500.082031 378.164062 " fill-opacity="1" fill-rule="nonzero"/><g clip-path="url(#067a90ed0c)"><path fill="#ff0000" d="M 858.882812 91.050781 C 836.550781 91.050781 818.367188 109.21875 818.367188 131.550781 C 818.367188 142.335938 822.605469 152.121094 829.476562 159.375 L 687.359375 373.363281 L 594.320312 315.425781 C 591.15625 313.460938 587.101562 313.625 584.101562 315.84375 L 570.261719 326.117188 C 555.003906 204.65625 451.09375 110.382812 325.578125 110.382812 C 189.585938 110.382812 78.945312 221.023438 78.945312 356.996094 C 78.945312 437.523438 117.734375 509.136719 177.601562 554.183594 L 56.738281 731.949219 C 51.972656 729.964844 46.773438 728.875 41.300781 728.875 C 18.96875 728.875 0.800781 747.042969 0.800781 769.390625 C 0.800781 791.722656 18.96875 809.890625 41.300781 809.890625 C 63.648438 809.890625 81.816406 791.726562 81.816406 769.390625 C 81.816406 759.0625 77.925781 749.640625 71.558594 742.496094 L 192.511719 564.566406 C 230.921875 589.28125 276.601562 603.628906 325.578125 603.628906 C 380.789062 603.628906 431.835938 585.371094 472.988281 554.601562 L 491.917969 573.535156 L 486.027344 579.40625 C 482.480469 582.953125 482.480469 588.714844 486.027344 592.261719 L 656.371094 762.605469 C 658.136719 764.371094 660.460938 765.261719 662.789062 765.261719 C 665.117188 765.261719 667.445312 764.371094 669.226562 762.605469 L 675.101562 756.714844 L 696.8125 778.429688 C 702.976562 784.59375 710.996094 787.722656 718.816406 787.722656 C 725.964844 787.722656 732.949219 785.117188 738.203125 779.863281 L 748.421875 769.644531 C 753.878906 764.1875 756.660156 756.769531 756.261719 748.785156 C 755.882812 741.148438 752.585938 733.855469 746.988281 728.253906 L 725.273438 706.539062 L 731.148438 700.667969 C 732.855469 698.957031 733.820312 696.648438 733.820312 694.230469 C 733.820312 691.832031 732.859375 689.519531 731.148438 687.8125 L 560.820312 517.484375 C 557.277344 513.921875 551.511719 513.921875 547.964844 517.484375 L 542.089844 523.359375 L 523.160156 504.429688 C 553.949219 463.273438 572.1875 412.226562 572.1875 356.996094 C 572.1875 353.816406 572.097656 350.632812 571.992188 347.46875 L 589.957031 334.136719 L 685.25 393.460938 C 686.738281 394.386719 688.394531 394.84375 690.050781 394.84375 C 692.996094 394.84375 695.886719 393.40625 697.632812 390.769531 L 844.628906 169.46875 C 849.0625 171.140625 853.867188 172.070312 858.886719 172.070312 C 881.21875 172.070312 899.386719 153.902344 899.386719 131.550781 C 899.382812 109.21875 881.214844 91.050781 858.882812 91.050781 Z M 41.296875 791.707031 C 29.003906 791.707031 18.984375 781.683594 18.984375 769.390625 C 18.984375 757.078125 29.003906 747.058594 41.296875 747.058594 C 53.609375 747.058594 63.628906 757.082031 63.628906 769.390625 C 63.628906 781.683594 53.609375 791.707031 41.296875 791.707031 Z M 734.132812 741.113281 C 736.53125 743.511719 737.949219 746.570312 738.09375 749.699219 C 738.242188 752.5 737.351562 755.007812 735.566406 756.789062 L 725.347656 767.007812 C 721.417969 770.917969 714.382812 770.285156 709.671875 765.574219 L 687.957031 743.859375 L 712.417969 719.398438 Z M 548.457031 542.707031 C 548.476562 542.691406 548.511719 542.671875 548.53125 542.65625 C 548.546875 542.617188 548.566406 542.601562 548.582031 542.582031 L 554.382812 536.765625 L 711.871094 694.234375 L 662.789062 743.316406 L 505.320312 585.847656 L 511.121094 580.046875 C 511.140625 580.007812 511.175781 579.992188 511.210938 579.972656 C 511.230469 579.9375 511.25 579.898438 511.285156 579.882812 Z M 529.234375 536.21875 L 504.773438 560.675781 L 487.207031 543.109375 C 495.917969 535.546875 504.101562 527.363281 511.667969 518.652344 Z M 325.574219 585.445312 C 199.601562 585.445312 97.128906 482.96875 97.128906 356.996094 C 97.128906 231.042969 199.601562 128.570312 325.574219 128.570312 C 451.527344 128.570312 554.003906 231.042969 554.003906 356.996094 C 554 482.96875 451.527344 585.445312 325.574219 585.445312 Z M 858.882812 153.882812 C 846.570312 153.882812 836.550781 143.863281 836.550781 131.550781 C 836.550781 119.257812 846.574219 109.238281 858.882812 109.238281 C 871.175781 109.238281 881.199219 119.257812 881.199219 131.550781 C 881.195312 143.863281 871.175781 153.882812 858.882812 153.882812 Z M 858.882812 153.882812 " fill-opacity="1" fill-rule="nonzero"/></g><path fill="#ff0000" d="M 63.628906 769.390625 C 63.628906 781.683594 53.609375 791.707031 41.296875 791.707031 C 29.003906 791.707031 18.984375 781.683594 18.984375 769.390625 C 18.984375 757.078125 29.003906 747.058594 41.296875 747.058594 C 53.609375 747.058594 63.628906 757.078125 63.628906 769.390625 Z M 63.628906 769.390625 " fill-opacity="1" fill-rule="nonzero"/><path fill="#ff0000" d="M 881.195312 131.550781 C 881.195312 143.863281 871.175781 153.882812 858.882812 153.882812 C 846.570312 153.882812 836.550781 143.863281 836.550781 131.550781 C 836.550781 119.257812 846.570312 109.238281 858.882812 109.238281 C 871.175781 109.238281 881.195312 119.257812 881.195312 131.550781 Z M 881.195312 131.550781 " fill-opacity="1" fill-rule="nonzero"/><path fill="#ff0000" d="M 738.09375 749.695312 C 738.242188 752.496094 737.351562 755.007812 735.566406 756.789062 L 725.347656 767.007812 C 721.417969 770.917969 714.382812 770.28125 709.671875 765.570312 L 687.957031 743.859375 L 712.417969 719.398438 L 734.132812 741.113281 C 736.53125 743.511719 737.949219 746.570312 738.09375 749.695312 Z M 738.09375 749.695312 " fill-opacity="1" fill-rule="nonzero"/><path fill="#ff0000" d="M 529.234375 536.21875 L 504.773438 560.675781 L 487.207031 543.109375 C 495.917969 535.546875 504.101562 527.363281 511.667969 518.652344 Z M 529.234375 536.21875 " fill-opacity="1" fill-rule="nonzero"/><path fill="#ff0000" d="M 711.871094 694.230469 L 662.789062 743.3125 L 505.320312 585.84375 L 511.121094 580.042969 C 511.140625 580.007812 511.175781 579.988281 511.210938 579.972656 C 511.230469 579.933594 511.25 579.898438 511.285156 579.878906 L 548.453125 542.707031 C 548.472656 542.691406 548.507812 542.671875 548.527344 542.65625 C 548.546875 542.617188 548.566406 542.601562 548.582031 542.582031 L 554.382812 536.765625 Z M 711.871094 694.230469 " fill-opacity="1" fill-rule="nonzero"/><path fill="#ff0000" d="M 325.574219 128.570312 C 199.601562 128.570312 97.128906 231.042969 97.128906 356.996094 C 97.128906 482.96875 199.601562 585.445312 325.574219 585.445312 C 451.527344 585.445312 554.003906 482.96875 554.003906 356.996094 C 554 231.042969 451.527344 128.570312 325.574219 128.570312 Z M 517.613281 384.402344 C 504.265625 478.441406 423.230469 551 325.574219 551 C 284.730469 551 246.8125 538.308594 215.515625 516.667969 C 215.167969 516.484375 214.824219 516.304688 214.480469 516.066406 C 214.167969 515.867188 213.898438 515.59375 213.625 515.355469 C 164.015625 480.167969 131.570312 422.300781 131.570312 357.015625 C 131.570312 250.046875 218.605469 163.011719 325.574219 163.011719 C 432.523438 163.011719 519.558594 250.046875 519.558594 357.015625 C 519.558594 366.269531 518.886719 375.382812 517.613281 384.3125 Z M 517.613281 384.402344 " fill-opacity="1" fill-rule="nonzero"/><path fill="#ffffff" d="M 363.398438 412.480469 L 412.648438 443.050781 L 500.082031 378.164062 C 500.917969 371.238281 501.375 364.164062 501.375 357.015625 C 501.375 260.070312 422.503906 181.199219 325.574219 181.199219 C 228.628906 181.199219 149.757812 260.070312 149.757812 357.015625 C 149.757812 413.210938 176.269531 463.328125 217.441406 495.535156 L 258.160156 435.648438 C 256.722656 432.484375 257.179688 428.628906 259.652344 425.867188 C 262.996094 422.121094 268.746094 421.792969 272.492188 425.140625 C 277.472656 429.578125 283.203125 432.8125 289.546875 434.757812 C 294.351562 436.230469 297.042969 441.324219 295.566406 446.125 C 294.367188 450.035156 290.765625 452.542969 286.875 452.542969 C 286.003906 452.542969 285.09375 452.417969 284.203125 452.144531 C 280.054688 450.871094 276.089844 449.179688 272.34375 447.144531 L 232.335938 505.992188 C 259.378906 522.976562 291.347656 532.816406 325.574219 532.816406 C 405.953125 532.816406 473.914062 478.566406 494.773438 404.753906 L 418.523438 461.347656 C 416.921875 462.527344 415.011719 463.128906 413.101562 463.128906 C 411.449219 463.128906 409.773438 462.675781 408.300781 461.765625 L 354.4375 428.320312 C 352.871094 429.449219 351 430.066406 349.089844 430.066406 C 347.378906 430.066406 345.652344 429.578125 344.105469 428.574219 C 339.90625 425.832031 338.742188 420.191406 341.488281 415.992188 C 345.144531 410.425781 347.488281 404.261719 348.453125 397.695312 C 349.199219 392.730469 353.835938 389.3125 358.800781 390.039062 C 363.765625 390.785156 367.183594 395.40625 366.4375 400.371094 C 365.820312 404.535156 364.800781 408.570312 363.398438 412.480469 Z M 256.289062 421.246094 C 255.105469 421.773438 253.867188 422.011719 252.648438 422.011719 C 249.140625 422.011719 245.8125 419.992188 244.304688 416.574219 C 240.738281 408.445312 238.9375 399.789062 238.9375 390.859375 C 238.9375 390.496094 238.9375 390.113281 238.957031 389.75 C 239.03125 384.730469 243.085938 380.710938 248.195312 380.820312 C 253.214844 380.894531 257.214844 385.039062 257.140625 390.058594 L 257.125 390.859375 C 257.125 397.261719 258.414062 403.460938 260.960938 409.28125 C 262.980469 413.882812 260.886719 419.230469 256.289062 421.246094 Z M 273.691406 355.542969 C 268.636719 359.742188 264.472656 365.089844 261.632812 371 C 260.070312 374.257812 256.816406 376.148438 253.433594 376.148438 C 252.105469 376.148438 250.757812 375.875 249.503906 375.257812 C 244.976562 373.074219 243.066406 367.65625 245.230469 363.125 C 249.195312 354.886719 255.015625 347.433594 262.070312 341.558594 C 265.925781 338.359375 271.652344 338.867188 274.871094 342.742188 C 278.09375 346.59375 277.566406 352.324219 273.691406 355.542969 Z M 291.078125 346.503906 C 286.222656 347.8125 281.238281 344.941406 279.929688 340.101562 C 278.621094 335.246094 281.492188 330.265625 286.347656 328.957031 C 291.765625 327.5 297.386719 326.753906 303.042969 326.753906 C 312.371094 326.753906 321.355469 328.71875 329.773438 332.574219 C 334.339844 334.683594 336.339844 340.066406 334.25 344.632812 C 332.722656 347.976562 329.429688 349.941406 325.972656 349.941406 C 324.703125 349.941406 323.410156 349.667969 322.191406 349.105469 C 316.171875 346.339844 309.734375 344.941406 303.042969 344.941406 C 298.96875 344.941406 294.949219 345.46875 291.078125 346.503906 Z M 340.03125 432.578125 C 342.722656 436.8125 341.449219 442.433594 337.195312 445.105469 C 329.339844 450.070312 320.664062 453.199219 311.460938 454.417969 C 311.042969 454.472656 310.664062 454.492188 310.261719 454.492188 C 305.769531 454.492188 301.859375 451.164062 301.261719 446.578125 C 300.605469 441.597656 304.117188 437.03125 309.082031 436.378906 C 315.679688 435.523438 321.863281 433.285156 327.503906 429.738281 C 331.738281 427.046875 337.359375 428.320312 340.03125 432.578125 Z M 358.4375 384.347656 C 357.597656 384.585938 356.746094 384.710938 355.90625 384.710938 C 351.960938 384.710938 348.324219 382.113281 347.179688 378.128906 C 345.34375 371.746094 342.214844 365.964844 337.851562 360.90625 C 334.578125 357.105469 334.996094 351.359375 338.796875 348.085938 C 342.613281 344.796875 348.34375 345.230469 351.617188 349.03125 C 357.707031 356.089844 362.089844 364.179688 364.65625 373.09375 C 366.039062 377.929688 363.253906 382.96875 358.4375 384.347656 Z M 358.4375 384.347656 " fill-opacity="1" fill-rule="nonzero"/><path fill="#ff0000" d="M 273.691406 355.542969 C 268.636719 359.742188 264.472656 365.089844 261.632812 371 C 260.070312 374.257812 256.816406 376.148438 253.433594 376.148438 C 252.105469 376.148438 250.757812 375.875 249.503906 375.257812 C 244.976562 373.074219 243.066406 367.65625 245.230469 363.125 C 249.195312 354.886719 255.015625 347.433594 262.070312 341.558594 C 265.925781 338.359375 271.652344 338.867188 274.871094 342.742188 C 278.09375 346.59375 277.566406 352.324219 273.691406 355.542969 Z M 273.691406 355.542969 " fill-opacity="1" fill-rule="nonzero"/><path fill="#ff0000" d="M 334.25 344.632812 C 332.722656 347.976562 329.429688 349.941406 325.972656 349.941406 C 324.703125 349.941406 323.410156 349.667969 322.191406 349.105469 C 316.171875 346.339844 309.734375 344.941406 303.042969 344.941406 C 298.96875 344.941406 294.949219 345.46875 291.078125 346.503906 C 286.222656 347.8125 281.238281 344.941406 279.929688 340.101562 C 278.621094 335.246094 281.492188 330.265625 286.347656 328.957031 C 291.765625 327.5 297.386719 326.753906 303.042969 326.753906 C 312.371094 326.753906 321.355469 328.71875 329.773438 332.574219 C 334.339844 334.683594 336.339844 340.066406 334.25 344.632812 Z M 334.25 344.632812 " fill-opacity="1" fill-rule="nonzero"/><path fill="#ff0000" d="M 358.4375 384.347656 C 357.597656 384.585938 356.746094 384.710938 355.90625 384.710938 C 351.960938 384.710938 348.324219 382.113281 347.179688 378.128906 C 345.34375 371.746094 342.214844 365.964844 337.851562 360.90625 C 334.578125 357.105469 334.996094 351.359375 338.796875 348.085938 C 342.613281 344.796875 348.34375 345.230469 351.617188 349.03125 C 357.707031 356.089844 362.089844 364.179688 364.65625 373.09375 C 366.039062 377.929688 363.253906 382.96875 358.4375 384.347656 Z M 358.4375 384.347656 " fill-opacity="1" fill-rule="nonzero"/><path fill="#ff0000" d="M 337.195312 445.105469 C 329.339844 450.070312 320.664062 453.199219 311.460938 454.417969 C 311.042969 454.472656 310.664062 454.492188 310.261719 454.492188 C 305.769531 454.492188 301.859375 451.164062 301.261719 446.578125 C 300.605469 441.597656 304.117188 437.03125 309.082031 436.378906 C 315.679688 435.523438 321.863281 433.285156 327.503906 429.738281 C 331.738281 427.046875 337.359375 428.320312 340.03125 432.578125 C 342.722656 436.8125 341.449219 442.433594 337.195312 445.105469 Z M 337.195312 445.105469 " fill-opacity="1" fill-rule="nonzero"/><path fill="#ff0000" d="M 256.289062 421.246094 C 255.105469 421.773438 253.867188 422.011719 252.648438 422.011719 C 249.140625 422.011719 245.8125 419.992188 244.304688 416.574219 C 240.738281 408.445312 238.9375 399.789062 238.9375 390.859375 C 238.9375 390.496094 238.9375 390.113281 238.957031 389.75 C 239.03125 384.730469 243.085938 380.710938 248.195312 380.820312 C 253.214844 380.894531 257.214844 385.039062 257.140625 390.058594 L 257.125 390.859375 C 257.125 397.261719 258.414062 403.460938 260.960938 409.28125 C 262.980469 413.882812 260.886719 419.230469 256.289062 421.246094 Z M 256.289062 421.246094 " fill-opacity="1" fill-rule="nonzero"/></svg>