<svg xmlns="http://www.w3.org/2000/svg" xmlns:xlink="http://www.w3.org/1999/xlink" width="1200" zoomAndPan="magnify" viewBox="0 0 900 899.99999" height="1200" preserveAspectRatio="xMidYMid meet" version="1.0"><defs><clipPath id="f609d92528"><path d="M 103 93.601562 L 797 93.601562 L 797 799 L 103 799 Z M 103 93.601562 " clip-rule="nonzero"/></clipPath></defs><g clip-path="url(#f609d92528)"><path fill="#ff0000" d="M 323.585938 568.269531 L 576.414062 568.269531 C 569.585938 504.484375 515.597656 454.804688 450 454.804688 C 384.402344 454.804688 330.410156 504.484375 323.585938 568.269531 Z M 158.84375 491.664062 C 159.09375 498.027344 154.140625 503.386719 147.78125 503.632812 C 141.421875 503.882812 136.0625 498.929688 135.8125 492.570312 C 131.4375 386.679688 179.960938 286.722656 265.640625 224.621094 L 247.980469 225.515625 C 232.828125 226.226562 231.75 203.195312 246.894531 202.480469 L 309.121094 199.34375 C 318.335938 198.910156 324.160156 208.886719 319.625 216.660156 L 291.519531 271.554688 C 284.628906 285.042969 264.125 274.5625 271.015625 261.078125 L 280.6875 242.1875 C 200.382812 299.605469 154.777344 392.898438 158.84375 491.664062 Z M 606.203125 725.476562 C 611.566406 722.0625 618.679688 723.636719 622.097656 729 C 625.515625 734.363281 623.9375 741.480469 618.574219 744.898438 C 568.121094 776.996094 509.789062 793.914062 450 793.914062 C 405.796875 793.914062 362.246094 784.742188 321.914062 766.695312 L 331.308594 781.097656 C 339.554688 793.796875 320.226562 806.351562 311.976562 793.65625 L 277.945312 741.464844 C 273.078125 733.96875 278.300781 724.109375 287.023438 723.671875 L 349.234375 720.292969 C 364.386719 719.523438 365.558594 742.554688 350.410156 743.328125 L 328.808594 744.5 C 366.878906 761.902344 408.125 770.789062 450 770.789062 C 505.539062 770.789062 559.324219 755.300781 606.203125 725.476562 Z M 585.007812 221.066406 C 579.371094 218.121094 577.1875 211.164062 580.128906 205.527344 C 583.074219 199.894531 590.03125 197.707031 595.667969 200.652344 C 646.679688 227.367188 689.457031 267.671875 719.183594 316.757812 C 742.773438 355.710938 758.152344 400.148438 762.929688 447.664062 L 771.339844 431.578125 C 778.351562 418.15625 798.765625 428.8125 791.753906 442.238281 L 762.878906 497.445312 C 758.734375 505.378906 747.589844 505.6875 742.917969 498.300781 L 709.542969 445.691406 C 701.417969 432.875 720.925781 420.5 729.054688 433.316406 L 739.988281 450.554688 C 735.644531 406.226562 721.398438 364.855469 699.496094 328.683594 C 671.941406 283.183594 632.292969 245.824219 585.007812 221.066406 Z M 784.039062 672.253906 C 810 627.289062 794.59375 569.789062 749.628906 543.832031 C 704.664062 517.871094 647.167969 533.277344 621.207031 578.242188 C 595.246094 623.207031 610.652344 680.703125 655.617188 706.664062 C 700.582031 732.625 758.078125 717.21875 784.039062 672.253906 Z M 702.621094 658.300781 C 708.246094 658.300781 712.808594 662.859375 712.808594 668.484375 C 712.808594 674.109375 708.246094 678.667969 702.621094 678.667969 C 697 678.667969 692.4375 674.109375 692.4375 668.484375 C 692.4375 662.859375 697 658.300781 702.621094 658.300781 Z M 713.253906 640.753906 C 713.132812 647.113281 707.875 652.171875 701.511719 652.046875 C 695.152344 651.921875 690.097656 646.664062 690.222656 640.304688 C 690.402344 632.46875 690.792969 626.722656 695.273438 619.785156 C 701.480469 610.179688 709.78125 609.859375 713.8125 603.5 C 719.300781 594.84375 712.859375 583.390625 702.621094 583.390625 C 695.394531 583.390625 689.4375 589.347656 689.4375 596.574219 C 689.4375 602.960938 684.261719 608.136719 677.875 608.136719 C 671.492188 608.136719 666.3125 602.960938 666.3125 596.574219 C 666.3125 576.582031 682.628906 560.265625 702.621094 560.265625 C 731.09375 560.265625 748.515625 591.917969 733.324219 615.875 C 726.945312 625.929688 717.699219 627.597656 714.691406 632.25 C 713.03125 634.820312 713.324219 637.828125 713.253906 640.753906 Z M 115.960938 672.253906 C 141.921875 717.21875 199.417969 732.625 244.382812 706.664062 C 289.351562 680.703125 304.753906 623.207031 278.792969 578.242188 C 252.832031 533.277344 195.335938 517.871094 150.371094 543.832031 C 105.40625 569.792969 90 627.289062 115.960938 672.253906 Z M 161.261719 605.484375 C 156.746094 600.96875 156.746094 593.648438 161.261719 589.136719 C 165.777344 584.621094 173.097656 584.621094 177.609375 589.136719 L 197.375 608.902344 L 217.140625 589.136719 C 221.65625 584.621094 228.976562 584.621094 233.488281 589.136719 C 238.003906 593.648438 238.003906 600.96875 233.488281 605.484375 L 213.722656 625.25 L 233.488281 645.015625 C 238.003906 649.53125 238.003906 656.851562 233.488281 661.363281 C 228.976562 665.875 221.65625 665.878906 217.140625 661.363281 L 197.375 641.597656 L 177.609375 661.363281 C 173.09375 665.878906 165.773438 665.878906 161.261719 661.363281 C 156.746094 656.847656 156.746094 649.527344 161.261719 645.015625 L 181.027344 625.25 Z M 450 93.679688 C 501.921875 93.679688 544.011719 135.769531 544.011719 187.691406 C 544.011719 239.613281 501.921875 281.703125 450 281.703125 C 398.078125 281.703125 355.988281 239.613281 355.988281 187.691406 C 355.988281 135.769531 398.078125 93.679688 450 93.679688 Z M 397.628906 198.496094 L 423.410156 224.277344 C 427.925781 228.796875 435.347656 228.804688 439.820312 224.214844 L 501.964844 167.816406 C 506.679688 163.527344 507.023438 156.226562 502.734375 151.511719 C 498.445312 146.796875 491.144531 146.453125 486.429688 150.746094 L 431.984375 200.15625 L 413.976562 182.148438 C 409.460938 177.636719 402.140625 177.636719 397.628906 182.148438 C 393.113281 186.664062 393.113281 193.984375 397.628906 198.496094 Z M 450 311.78125 C 485.503906 311.78125 514.285156 340.5625 514.285156 376.066406 C 514.285156 411.570312 485.503906 440.351562 450 440.351562 C 414.496094 440.351562 385.714844 411.570312 385.714844 376.066406 C 385.714844 340.5625 414.496094 311.78125 450 311.78125 Z M 450 311.78125 " fill-opacity="1" fill-rule="evenodd"/></g></svg>