<svg xmlns="http://www.w3.org/2000/svg" xmlns:xlink="http://www.w3.org/1999/xlink" width="1200" zoomAndPan="magnify" viewBox="0 0 900 899.99999" height="1200" preserveAspectRatio="xMidYMid meet" version="1.0"><defs><clipPath id="05ad3dca10"><path d="M 27.253906 27.253906 L 877.753906 27.253906 L 877.753906 877.753906 L 27.253906 877.753906 Z M 27.253906 27.253906 " clip-rule="nonzero"/></clipPath></defs><g clip-path="url(#05ad3dca10)"><path fill="#ff0000" d="M 877.695312 452.476562 C 877.695312 459.433594 877.527344 466.390625 877.183594 473.339844 C 876.84375 480.289062 876.332031 487.230469 875.648438 494.15625 C 874.964844 501.078125 874.113281 507.984375 873.09375 514.867188 C 872.074219 521.753906 870.882812 528.605469 869.527344 535.433594 C 868.167969 542.257812 866.644531 549.046875 864.953125 555.796875 C 863.261719 562.546875 861.40625 569.25 859.386719 575.910156 C 857.367188 582.570312 855.183594 589.175781 852.839844 595.726562 C 850.496094 602.28125 847.992188 608.769531 845.328125 615.199219 C 842.664062 621.628906 839.847656 627.988281 836.871094 634.28125 C 833.894531 640.570312 830.765625 646.785156 827.488281 652.921875 C 824.207031 659.058594 820.777344 665.113281 817.199219 671.082031 C 813.621094 677.050781 809.898438 682.929688 806.035156 688.714844 C 802.167969 694.5 798.160156 700.191406 794.015625 705.777344 C 789.871094 711.367188 785.589844 716.851562 781.175781 722.234375 C 776.761719 727.613281 772.214844 732.878906 767.542969 738.035156 C 762.871094 743.191406 758.074219 748.230469 753.152344 753.152344 C 748.230469 758.074219 743.191406 762.871094 738.035156 767.542969 C 732.878906 772.214844 727.613281 776.761719 722.234375 781.175781 C 716.851562 785.589844 711.367188 789.871094 705.78125 794.015625 C 700.191406 798.160156 694.5 802.167969 688.714844 806.035156 C 682.929688 809.898438 677.050781 813.621094 671.082031 817.199219 C 665.113281 820.777344 659.0625 824.207031 652.921875 827.488281 C 646.785156 830.765625 640.570312 833.894531 634.28125 836.871094 C 627.988281 839.847656 621.628906 842.664062 615.199219 845.328125 C 608.769531 847.992188 602.28125 850.496094 595.726562 852.839844 C 589.175781 855.183594 582.570312 857.367188 575.910156 859.386719 C 569.25 861.40625 562.546875 863.261719 555.796875 864.953125 C 549.046875 866.644531 542.257812 868.167969 535.433594 869.527344 C 528.605469 870.882812 521.753906 872.074219 514.867188 873.09375 C 507.984375 874.113281 501.078125 874.964844 494.15625 875.648438 C 487.230469 876.332031 480.289062 876.84375 473.339844 877.183594 C 466.390625 877.527344 459.433594 877.695312 452.476562 877.695312 C 445.515625 877.695312 438.5625 877.527344 431.609375 877.183594 C 424.660156 876.84375 417.722656 876.332031 410.796875 875.648438 C 403.871094 874.964844 396.964844 874.113281 390.082031 873.09375 C 383.199219 872.074219 376.34375 870.882812 369.519531 869.527344 C 362.695312 868.167969 355.90625 866.644531 349.15625 864.953125 C 342.40625 863.261719 335.699219 861.40625 329.039062 859.386719 C 322.382812 857.367188 315.773438 855.183594 309.222656 852.839844 C 302.671875 850.496094 296.179688 847.992188 289.75 845.328125 C 283.320312 842.664062 276.960938 839.847656 270.671875 836.871094 C 264.378906 833.894531 258.164062 830.765625 252.027344 827.488281 C 245.890625 824.207031 239.835938 820.777344 233.867188 817.199219 C 227.898438 813.621094 222.023438 809.898438 216.234375 806.035156 C 210.449219 802.167969 204.761719 798.160156 199.171875 794.015625 C 193.582031 789.871094 188.097656 785.589844 182.71875 781.175781 C 177.339844 776.761719 172.070312 772.214844 166.914062 767.542969 C 161.757812 762.871094 156.71875 758.074219 151.800781 753.152344 C 146.878906 748.230469 142.082031 743.191406 137.40625 738.035156 C 132.734375 732.878906 128.191406 727.613281 123.777344 722.234375 C 119.359375 716.851562 115.082031 711.367188 110.933594 705.78125 C 106.789062 700.191406 102.785156 694.5 98.917969 688.714844 C 95.050781 682.929688 91.328125 677.050781 87.75 671.082031 C 84.175781 665.113281 80.746094 659.0625 77.464844 652.921875 C 74.183594 646.785156 71.054688 640.570312 68.082031 634.28125 C 65.105469 627.988281 62.285156 621.628906 59.621094 615.199219 C 56.960938 608.769531 54.457031 602.28125 52.113281 595.726562 C 49.765625 589.175781 47.585938 582.570312 45.566406 575.910156 C 43.542969 569.25 41.6875 562.546875 40 555.796875 C 38.308594 549.046875 36.78125 542.257812 35.425781 535.433594 C 34.066406 528.605469 32.878906 521.753906 31.855469 514.867188 C 30.835938 507.984375 29.984375 501.078125 29.300781 494.15625 C 28.621094 487.230469 28.109375 480.289062 27.765625 473.339844 C 27.425781 466.390625 27.253906 459.433594 27.253906 452.476562 C 27.253906 445.515625 27.425781 438.5625 27.765625 431.609375 C 28.109375 424.660156 28.621094 417.722656 29.300781 410.796875 C 29.984375 403.871094 30.835938 396.964844 31.855469 390.082031 C 32.878906 383.199219 34.066406 376.34375 35.425781 369.519531 C 36.78125 362.695312 38.308594 355.90625 40 349.15625 C 41.6875 342.40625 43.542969 335.699219 45.566406 329.039062 C 47.585938 322.382812 49.765625 315.773438 52.113281 309.222656 C 54.457031 302.671875 56.960938 296.179688 59.621094 289.75 C 62.285156 283.320312 65.105469 276.960938 68.082031 270.671875 C 71.054688 264.378906 74.183594 258.164062 77.464844 252.027344 C 80.746094 245.890625 84.175781 239.835938 87.75 233.867188 C 91.328125 227.898438 95.050781 222.023438 98.917969 216.234375 C 102.785156 210.449219 106.789062 204.761719 110.933594 199.171875 C 115.082031 193.582031 119.359375 188.097656 123.777344 182.71875 C 128.191406 177.339844 132.734375 172.070312 137.40625 166.914062 C 142.082031 161.757812 146.878906 156.71875 151.800781 151.800781 C 156.71875 146.878906 161.757812 142.082031 166.914062 137.40625 C 172.070312 132.734375 177.339844 128.191406 182.71875 123.777344 C 188.097656 119.359375 193.582031 115.082031 199.171875 110.933594 C 204.761719 106.789062 210.449219 102.785156 216.234375 98.917969 C 222.023438 95.050781 227.898438 91.328125 233.867188 87.75 C 239.835938 84.175781 245.890625 80.746094 252.027344 77.464844 C 258.164062 74.183594 264.378906 71.054688 270.671875 68.082031 C 276.960938 65.105469 283.320312 62.285156 289.75 59.621094 C 296.179688 56.960938 302.671875 54.457031 309.222656 52.113281 C 315.773438 49.765625 322.382812 47.585938 329.039062 45.566406 C 335.699219 43.542969 342.40625 41.6875 349.15625 40 C 355.90625 38.308594 362.695312 36.78125 369.519531 35.425781 C 376.34375 34.066406 383.199219 32.878906 390.082031 31.855469 C 396.964844 30.835938 403.871094 29.984375 410.796875 29.300781 C 417.722656 28.621094 424.660156 28.109375 431.609375 27.765625 C 438.5625 27.425781 445.515625 27.253906 452.476562 27.253906 C 459.433594 27.253906 466.390625 27.425781 473.339844 27.765625 C 480.289062 28.109375 487.230469 28.621094 494.15625 29.300781 C 501.078125 29.984375 507.984375 30.835938 514.867188 31.855469 C 521.753906 32.878906 528.605469 34.066406 535.433594 35.425781 C 542.257812 36.78125 549.046875 38.308594 555.796875 40 C 562.546875 41.6875 569.25 43.542969 575.910156 45.566406 C 582.570312 47.585938 589.175781 49.765625 595.726562 52.113281 C 602.28125 54.457031 608.769531 56.960938 615.199219 59.621094 C 621.628906 62.285156 627.988281 65.105469 634.28125 68.082031 C 640.570312 71.054688 646.785156 74.183594 652.921875 77.464844 C 659.058594 80.746094 665.113281 84.175781 671.082031 87.75 C 677.050781 91.328125 682.929688 95.050781 688.714844 98.917969 C 694.5 102.785156 700.191406 106.789062 705.777344 110.933594 C 711.367188 115.082031 716.851562 119.359375 722.234375 123.777344 C 727.613281 128.191406 732.878906 132.734375 738.035156 137.40625 C 743.191406 142.082031 748.230469 146.878906 753.152344 151.800781 C 758.074219 156.71875 762.871094 161.757812 767.542969 166.914062 C 772.214844 172.070312 776.761719 177.339844 781.175781 182.71875 C 785.589844 188.097656 789.871094 193.582031 794.015625 199.171875 C 798.160156 204.761719 802.167969 210.449219 806.035156 216.234375 C 809.898438 222.023438 813.621094 227.898438 817.199219 233.867188 C 820.777344 239.835938 824.207031 245.890625 827.488281 252.027344 C 830.765625 258.164062 833.894531 264.378906 836.871094 270.671875 C 839.847656 276.960938 842.664062 283.320312 845.328125 289.75 C 847.992188 296.179688 850.496094 302.671875 852.839844 309.222656 C 855.183594 315.773438 857.367188 322.382812 859.386719 329.039062 C 861.40625 335.699219 863.261719 342.40625 864.953125 349.15625 C 866.644531 355.90625 868.167969 362.695312 869.527344 369.519531 C 870.882812 376.34375 872.074219 383.199219 873.09375 390.082031 C 874.113281 396.964844 874.964844 403.871094 875.648438 410.796875 C 876.332031 417.722656 876.84375 424.660156 877.183594 431.609375 C 877.527344 438.5625 877.695312 445.515625 877.695312 452.476562 Z M 877.695312 452.476562 " fill-opacity="1" fill-rule="nonzero"/></g><path fill="#ffffff" d="M 649.933594 450.976562 C 646.628906 450.976562 643.03125 448.574219 642.730469 444.972656 L 619.921875 276.625 L 598.617188 276.625 C 595.617188 276.625 593.214844 274.824219 592.316406 272.425781 C 591.113281 269.722656 591.414062 267.023438 593.515625 264.921875 L 644.832031 205.207031 C 646.03125 203.703125 648.132812 202.804688 650.230469 202.804688 C 652.332031 202.804688 654.433594 203.703125 655.632812 205.207031 L 706.949219 264.921875 C 708.449219 267.023438 709.046875 269.722656 708.148438 272.425781 C 706.949219 274.824219 704.546875 276.625 701.847656 276.625 L 679.339844 276.625 L 656.535156 444.972656 C 656.234375 448.273438 653.234375 450.976562 649.933594 450.976562 Z M 649.933594 450.976562 " fill-opacity="1" fill-rule="evenodd"/><path fill="#ffffff" d="M 592.015625 701.847656 L 304.832031 701.847656 C 300.933594 701.847656 297.632812 698.546875 297.632812 694.945312 L 297.632812 319.539062 C 297.632812 315.636719 300.933594 312.335938 304.832031 312.335938 L 592.015625 312.335938 C 595.617188 312.335938 598.917969 315.636719 598.917969 319.539062 L 598.917969 695.246094 C 598.917969 699.144531 596.214844 701.847656 592.015625 701.847656 Z M 466.878906 595.617188 L 429.667969 595.617188 C 426.066406 595.617188 423.066406 592.914062 422.765625 589.015625 L 421.867188 574.609375 C 415.265625 571.910156 408.964844 568.308594 403.261719 563.507812 L 390.359375 570.410156 C 386.757812 571.910156 382.855469 570.710938 381.054688 567.410156 L 362.75 535.597656 C 360.949219 532.296875 361.851562 528.097656 364.851562 526.597656 L 376.855469 518.496094 C 376.554688 514.894531 375.953125 511.59375 375.953125 507.691406 C 375.953125 504.089844 376.554688 500.789062 376.855469 496.886719 L 364.851562 489.085938 C 361.851562 486.984375 360.648438 482.785156 362.75 479.785156 L 381.355469 447.675781 C 383.15625 444.375 387.355469 443.171875 390.65625 444.972656 L 403.5625 451.574219 C 409.261719 447.074219 415.566406 443.171875 422.167969 440.773438 L 423.066406 426.066406 C 423.667969 422.46875 426.367188 419.464844 430.269531 419.464844 L 466.878906 419.464844 C 470.78125 419.464844 473.480469 422.46875 474.082031 426.066406 L 474.683594 440.773438 C 481.582031 443.171875 487.585938 447.074219 493.585938 451.574219 L 506.492188 444.972656 C 509.792969 443.171875 513.992188 444.375 515.792969 447.675781 L 534.398438 479.785156 C 536.199219 483.085938 535.300781 487.285156 532.296875 489.085938 L 520.292969 496.589844 C 520.59375 500.1875 521.195312 503.488281 521.195312 507.390625 C 521.195312 510.992188 520.59375 514.59375 520.292969 518.195312 L 532.296875 525.996094 C 535.300781 528.097656 536.5 532.296875 534.398438 535.300781 L 515.792969 567.410156 C 513.992188 570.710938 509.792969 571.910156 506.492188 570.410156 L 493.585938 563.507812 C 487.585938 568.308594 481.582031 571.910156 474.683594 574.609375 L 474.082031 589.015625 C 474.082031 593.214844 470.78125 595.617188 466.878906 595.617188 Z M 547.601562 363.652344 L 348.945312 363.652344 C 345.34375 363.652344 341.746094 360.347656 341.746094 356.449219 C 341.746094 352.847656 345.34375 349.546875 348.945312 349.546875 L 547.601562 349.546875 C 551.503906 349.546875 554.804688 352.847656 554.804688 356.449219 C 554.804688 360.347656 551.503906 363.652344 547.601562 363.652344 Z M 547.601562 399.960938 L 348.945312 399.960938 C 345.34375 399.960938 341.746094 396.660156 341.746094 392.757812 C 341.746094 389.15625 345.34375 385.554688 348.945312 385.554688 L 547.601562 385.554688 C 551.503906 385.554688 554.804688 389.15625 554.804688 392.757812 C 554.804688 396.660156 551.503906 399.960938 547.601562 399.960938 Z M 547.601562 628.625 L 348.945312 628.625 C 345.34375 628.625 341.746094 625.324219 341.746094 621.421875 C 341.746094 617.824219 345.34375 614.523438 348.945312 614.523438 L 547.601562 614.523438 C 551.503906 614.523438 554.804688 617.824219 554.804688 621.421875 C 554.804688 625.324219 551.503906 628.625 547.601562 628.625 Z M 547.601562 664.9375 L 348.945312 664.9375 C 345.34375 664.9375 341.746094 661.636719 341.746094 657.734375 C 341.746094 654.132812 345.34375 650.832031 348.945312 650.832031 L 547.601562 650.832031 C 551.503906 650.832031 554.804688 654.132812 554.804688 657.734375 C 554.804688 661.636719 551.503906 664.9375 547.601562 664.9375 Z M 448.574219 552.105469 C 423.96875 552.105469 403.863281 532 403.863281 507.390625 C 403.863281 482.785156 423.96875 462.679688 448.574219 462.679688 C 473.179688 462.679688 493.289062 482.785156 493.289062 507.390625 C 493.289062 532 473.179688 552.105469 448.574219 552.105469 Z M 448.574219 477.082031 C 431.46875 477.082031 417.664062 490.585938 417.664062 507.691406 C 417.664062 524.796875 431.46875 538.601562 448.574219 538.601562 C 465.679688 538.601562 479.484375 524.796875 479.484375 507.691406 C 479.484375 490.585938 465.378906 477.082031 448.574219 477.082031 Z M 436.570312 582.113281 L 460.277344 582.113281 L 461.179688 569.507812 C 461.179688 566.507812 463.277344 564.105469 465.980469 563.207031 C 474.082031 560.804688 481.582031 556.003906 487.585938 550.601562 C 489.6875 548.503906 493.289062 548.203125 495.6875 549.402344 L 506.792969 554.804688 L 519.09375 534.097656 L 508.589844 527.496094 C 506.191406 525.695312 504.691406 522.695312 505.589844 519.996094 C 506.492188 515.792969 506.792969 511.59375 506.792969 507.390625 C 506.792969 503.191406 506.492188 498.988281 505.589844 494.789062 C 505.289062 492.085938 506.191406 489.085938 508.589844 487.285156 L 519.09375 480.382812 L 506.792969 459.378906 L 495.6875 464.777344 C 493.289062 465.980469 489.6875 465.679688 487.585938 463.578125 C 481.582031 457.878906 474.082031 453.675781 465.980469 450.976562 C 463.277344 450.375 461.476562 447.675781 461.179688 444.972656 L 460.277344 432.371094 L 436.570312 432.371094 L 435.671875 444.972656 C 435.671875 447.675781 433.570312 450.375 430.570312 451.273438 C 422.765625 453.675781 415.265625 458.175781 408.964844 463.578125 C 406.863281 465.679688 403.5625 465.980469 401.160156 464.777344 L 389.757812 459.378906 L 377.753906 480.382812 L 388.257812 487.285156 C 390.65625 489.085938 391.859375 492.085938 390.957031 494.789062 C 390.359375 498.988281 389.757812 503.191406 389.757812 507.390625 C 389.757812 511.59375 390.359375 515.792969 390.957031 519.996094 C 391.558594 522.695312 390.65625 525.695312 388.257812 527.496094 L 377.753906 534.398438 L 389.757812 555.40625 L 401.160156 550.003906 C 403.5625 548.503906 406.863281 549.101562 408.964844 551.203125 C 415.265625 556.90625 422.765625 561.105469 430.570312 563.507812 C 433.570312 564.40625 435.371094 567.109375 435.671875 569.808594 Z M 436.570312 582.113281 " fill-opacity="1" fill-rule="evenodd"/><path fill="#ffffff" d="M 254.417969 450.976562 C 251.117188 450.976562 247.816406 448.574219 247.21875 444.972656 L 224.410156 276.625 L 203.105469 276.625 C 200.105469 276.625 197.703125 274.824219 196.804688 272.425781 C 195.601562 269.722656 195.902344 267.023438 198.003906 264.921875 L 249.019531 205.207031 C 251.417969 202.203125 256.820312 202.203125 259.519531 205.207031 L 310.535156 264.921875 C 312.335938 267.023438 312.636719 269.722656 311.734375 272.425781 C 310.535156 274.824219 308.132812 276.625 305.734375 276.625 L 284.429688 276.625 L 261.320312 444.972656 C 260.722656 448.273438 257.71875 450.976562 254.417969 450.976562 Z M 254.417969 450.976562 " fill-opacity="1" fill-rule="evenodd"/></svg>