<svg xmlns="http://www.w3.org/2000/svg" xmlns:xlink="http://www.w3.org/1999/xlink" width="1200" zoomAndPan="magnify" viewBox="0 0 900 899.99999" height="1200" preserveAspectRatio="xMidYMid meet" version="1.0"><defs><clipPath id="63bcd04f21"><path d="M 27.746094 119.003906 L 768 119.003906 L 768 859 L 27.746094 859 Z M 27.746094 119.003906 " clip-rule="nonzero"/></clipPath></defs><g clip-path="url(#63bcd04f21)"><path fill="#edf4e0" d="M 767.453125 488.972656 C 767.453125 693.238281 601.878906 858.8125 397.613281 858.8125 C 193.355469 858.8125 27.769531 693.238281 27.769531 488.972656 C 27.769531 284.707031 193.355469 119.132812 397.613281 119.132812 C 601.878906 119.132812 767.453125 284.707031 767.453125 488.972656 " fill-opacity="1" fill-rule="nonzero"/><path fill="#cc1c1f" d="M 397.613281 119.132812 C 193.355469 119.132812 27.769531 284.707031 27.769531 488.972656 C 27.769531 693.238281 193.355469 858.8125 397.613281 858.8125 C 601.878906 858.8125 767.453125 693.238281 767.453125 488.972656 C 767.453125 284.707031 601.878906 119.132812 397.613281 119.132812 Z M 397.613281 193.101562 C 560.769531 193.101562 693.484375 325.835938 693.484375 488.972656 C 693.484375 652.101562 560.769531 784.84375 397.613281 784.84375 C 234.472656 784.84375 101.730469 652.101562 101.730469 488.972656 C 101.730469 325.835938 234.472656 193.101562 397.613281 193.101562 " fill-opacity="1" fill-rule="nonzero"/></g><path fill="#cc1c1f" d="M 397.609375 267.070312 C 275.066406 267.070312 175.707031 366.421875 175.707031 488.972656 C 175.707031 611.523438 275.066406 710.875 397.609375 710.875 C 520.171875 710.875 619.511719 611.523438 619.511719 488.972656 C 619.511719 366.421875 520.171875 267.070312 397.609375 267.070312 Z M 397.609375 341.035156 C 479.171875 341.035156 545.546875 407.402344 545.546875 488.972656 C 545.546875 570.542969 479.171875 636.910156 397.609375 636.910156 C 316.046875 636.910156 249.675781 570.542969 249.675781 488.972656 C 249.675781 407.402344 316.046875 341.035156 397.609375 341.035156 " fill-opacity="1" fill-rule="nonzero"/><path fill="#cc1c1f" d="M 471.574219 488.976562 C 471.574219 529.816406 438.464844 562.941406 397.609375 562.941406 C 356.761719 562.941406 323.640625 529.816406 323.640625 488.976562 C 323.640625 448.132812 356.761719 415.007812 397.609375 415.007812 C 438.464844 415.007812 471.574219 448.132812 471.574219 488.976562 " fill-opacity="1" fill-rule="nonzero"/><path fill="#c76528" d="M 809 254.886719 C 834.316406 298.71875 948.507812 280.175781 848.292969 338.035156 C 748.0625 395.910156 646.324219 407.269531 621 363.421875 C 595.710938 319.589844 656.417969 237.144531 756.613281 179.28125 C 856.847656 121.421875 783.6875 211.042969 809 254.886719 " fill-opacity="1" fill-rule="nonzero"/><path fill="#50616c" d="M 397.628906 507.179688 C 392.507812 507.179688 387.550781 504.53125 384.800781 499.789062 C 380.710938 492.707031 383.136719 483.660156 390.21875 479.578125 L 812.960938 235.507812 C 820.019531 231.40625 829.070312 233.839844 833.171875 240.929688 C 837.265625 248.003906 834.835938 257.042969 827.753906 261.136719 L 405.015625 505.210938 C 402.679688 506.542969 400.140625 507.179688 397.628906 507.179688 " fill-opacity="1" fill-rule="nonzero"/></svg>